<svg width="1440" height="1024" viewBox="0 0 1440 1024" fill="none" xmlns="http://www.w3.org/2000/svg">
<g clip-path="url(#clip0_103_17)">
<path fill-rule="evenodd" clip-rule="evenodd" d="M661.889 346.47C688.839 427.644 819.502 481.684 791.526 562.537C763.445 643.692 631.272 622.587 552.515 662.569C490.434 694.085 448.979 754.726 380.834 771.031C298.994 790.611 207.239 803.064 134.148 762.666C58.571 720.895 18.8356 637.963 -5.40487 557.556C-28.9791 479.359 -26.9348 396.411 0.510907 319.386C27.5608 243.473 74.3048 171.347 146.576 131.031C215.263 92.7143 298.73 114.858 377.928 108.847C465.973 102.163 569.362 38.1772 635.932 93.8844C704.04 150.878 634.455 263.838 661.889 346.47Z" fill="url(#paint0_linear_103_17)"/>
<path fill-rule="evenodd" clip-rule="evenodd" d="M925.628 389.381C985.817 364.169 1053.31 381.866 1117.76 393.963C1171.66 404.079 1218.55 426.962 1266.12 453.29C1321.75 484.074 1379.86 510.13 1417.69 559.932C1469.04 627.539 1532.94 702.576 1518.11 785.023C1502.97 869.215 1423.3 932.432 1343.78 970.83C1270.09 1006.41 1182.84 1004.92 1102.86 985.535C1034.23 968.902 984.375 918.361 933.283 871.343C888.121 829.783 850.038 784.691 824.871 729.713C796.386 667.49 760.239 600.991 779.594 535.614C799.305 469.037 859.536 417.065 925.628 389.381Z" fill="url(#paint1_linear_103_17)"/>
</g>
<defs>
<linearGradient id="paint0_linear_103_17" x1="609.899" y1="-18.3349" x2="379.264" y2="928.788" gradientUnits="userSpaceOnUse">
<stop stop-color="#03A65A"/>
<stop offset="1" stop-color="#E8F5F2"/>
</linearGradient>
<linearGradient id="paint1_linear_103_17" x1="683.174" y1="543.384" x2="1561" y2="452.945" gradientUnits="userSpaceOnUse">
<stop stop-color="#03A65A"/>
<stop offset="1" stop-color="#E8F5F2"/>
</linearGradient>
<clipPath id="clip0_103_17">
<rect width="1440" height="1024" fill="white"/>
</clipPath>
</defs>
</svg>
