<svg width="1440" height="1024" viewBox="0 0 1440 1024" fill="none" xmlns="http://www.w3.org/2000/svg">
<path fill-rule="evenodd" clip-rule="evenodd" d="M507.956 292.493C555.59 301.937 574.161 355.989 612.859 385.287C664.773 424.59 752.832 426.986 768.879 490.033C785.574 555.627 732.101 618.132 684.347 666.161C636.391 714.391 573.495 770.797 507.956 752.452C444.11 734.581 441.95 646.38 408.807 589.035C389.374 555.411 364.843 527.904 356.291 490.033C344.327 437.052 317.983 376.49 351.076 333.387C385.259 288.864 452.848 281.568 507.956 292.493Z" fill="url(#paint0_linear_107_2)"/>
<path fill-rule="evenodd" clip-rule="evenodd" d="M1052.59 228.648C1001.32 198.001 931.235 219.617 882.004 253.446C839.659 282.543 841.255 341.354 820.302 388.265C798.154 437.851 739.581 480.688 757.628 531.909C775.752 583.346 843.322 594.713 896.803 605.389C939.021 613.816 980.118 602.166 1019.21 584.124C1056.28 567.011 1092.28 544.905 1108.76 507.549C1125.58 469.433 1114.25 428.195 1106.03 387.354C1094.57 330.468 1102.4 258.421 1052.59 228.648Z" fill="url(#paint1_linear_107_2)"/>
<defs>
<linearGradient id="paint0_linear_107_2" x1="553.5" y1="288" x2="553.5" y2="756" gradientUnits="userSpaceOnUse">
<stop stop-color="#89CDB9"/>
<stop offset="1" stop-color="#03A65A"/>
</linearGradient>
<linearGradient id="paint1_linear_107_2" x1="1046.59" y1="225.024" x2="885.878" y2="613.676" gradientUnits="userSpaceOnUse">
<stop stop-color="#89CDB9"/>
<stop offset="1" stop-color="#03A65A"/>
</linearGradient>
</defs>
</svg>
