<svg width="1440" height="1024" viewBox="0 0 1440 1024" fill="none" xmlns="http://www.w3.org/2000/svg">
<g clip-path="url(#clip0_103_16)">
<path fill-rule="evenodd" clip-rule="evenodd" d="M501.391 298.726C560.574 323.348 599.423 373.955 652.52 409.867C735.031 465.673 883.986 468.399 898.059 567.011C911.738 662.855 778.746 711.802 704.474 773.906C653.379 816.629 593.693 838.701 535.151 870.463C466.267 907.836 409.904 979.936 331.624 976.199C249.336 972.269 185.753 907.237 125.638 850.909C57.5606 787.12 -29.4575 724.274 -36.5162 631.248C-43.5822 538.129 29.2062 459.669 90.6116 389.308C143.952 328.188 209.541 276.003 288.76 258.534C360.967 242.611 433.122 270.324 501.391 298.726Z" fill="url(#paint0_linear_103_16)"/>
<path fill-rule="evenodd" clip-rule="evenodd" d="M491.496 484.217C578.512 483.744 684.796 429.994 746.048 491.803C806.021 552.32 753.106 656.235 746.113 741.147C740.343 811.208 752.542 888.405 708.851 943.476C666.524 996.829 590.483 1001.92 524.84 1020.06C467.344 1035.95 410.642 1051.19 351.672 1042.2C287.814 1032.46 227.126 1009.3 178.149 967.18C122.181 919.052 78.8545 858.942 56.6862 788.535C29.4189 701.932 -21.1953 591.913 38.4367 523.448C100.424 452.279 219.06 502.296 313.087 494.154C373.915 488.887 430.441 484.549 491.496 484.217Z" fill="url(#paint1_linear_103_16)"/>
<path fill-rule="evenodd" clip-rule="evenodd" d="M1044.67 77.2317C1117.04 97.0347 1195.91 83.7662 1259.21 124.063C1339.23 175.008 1446.16 236.542 1443.85 331.376C1441.51 428.067 1302.99 456.492 1249.19 536.865C1198.15 613.098 1227.86 751.576 1141.62 782.852C1054.47 814.46 986.19 691.494 897.531 664.399C816.395 639.603 709.409 694.738 651.232 632.985C593.463 571.665 639.324 471.081 636.098 386.896C633.007 306.225 596.258 222.667 632.752 150.656C670.374 76.4188 747.025 20.9413 828.96 6.33627C905.342 -7.27879 969.835 56.7551 1044.67 77.2317Z" fill="url(#paint2_linear_103_16)"/>
</g>
<defs>
<linearGradient id="paint0_linear_103_16" x1="507.391" y1="289.758" x2="334.366" y2="980.231" gradientUnits="userSpaceOnUse">
<stop stop-color="#89CDB9"/>
<stop offset="1" stop-color="#03A65A"/>
</linearGradient>
<linearGradient id="paint1_linear_103_16" x1="80.1985" y1="310.733" x2="675.146" y2="1125.25" gradientUnits="userSpaceOnUse">
<stop stop-color="#03A65A"/>
<stop offset="1" stop-color="#E8F5F2"/>
</linearGradient>
<linearGradient id="paint2_linear_103_16" x1="1083.43" y1="58.6712" x2="912.571" y2="740.489" gradientUnits="userSpaceOnUse">
<stop stop-color="#89CDB9"/>
<stop offset="1" stop-color="#03A65A"/>
</linearGradient>
<clipPath id="clip0_103_16">
<rect width="1440" height="1024" fill="white"/>
</clipPath>
</defs>
</svg>
